<?xml version="1.0" ?><svg style="enable-background:new 0 0 512 512;" version="1.1" viewBox="0 0 512 512" xml:space="preserve" xmlns="http://www.w3.org/2000/svg" xmlns:xlink="http://www.w3.org/1999/xlink"><g id="_x33_0_x2C__call_x2C__consult_x2C__Doctor_x2C__on-call"><g id="XMLID_8588_"><path d="M391.569,97.4c27.67,0,50.11,22.43,50.11,50.1c0,13.84-5.61,26.36-14.68,35.43    c-9.07,9.06-21.6,14.67-35.43,14.67c-13.83,0-26.36-5.61-35.43-14.67c-9.06-9.07-14.67-21.59-14.67-35.43s5.61-26.36,14.67-35.43    C365.209,103.01,377.739,97.4,391.569,97.4z" id="XMLID_8795_" style="fill:#FFFFFF;"/><path d="M403.139,120.52c6.38,0,11.56,5.18,11.56,11.56c0,6.39-5.18,11.57-11.56,11.57    c-6.39,0-11.57-5.18-11.57-11.57C391.569,125.7,396.749,120.52,403.139,120.52z" id="XMLID_1619_" style="fill:#9BC9FF;"/><circle cx="380.009" cy="166.77" id="XMLID_1618_" r="7.71" style="fill:#9BC9FF;"/><path d="M479.049,69.48c7.13,7.13,7.13,18.68,0,25.81c-7.12,7.13-18.68,7.13-25.81,0    c-7.13-7.13-7.13-18.68,0-25.81C460.369,62.35,471.929,62.35,479.049,69.48z" id="XMLID_1617_" style="fill:#FFFFFF;"/><path d="M456.979,196.56c4.52,4.51,4.52,11.83,0,16.35c-4.52,4.51-11.84,4.51-16.35,0    c-4.52-4.52-4.52-11.84,0-16.35C445.139,192.04,452.459,192.04,456.979,196.56z" id="XMLID_1616_" style="fill:#FFFFFF;"/><path d="M391.569,30c6.39,0,11.57,5.18,11.57,11.56c0,6.39-5.18,11.56-11.57,11.56    c-6.38,0-11.56-5.17-11.56-11.56C380.009,35.18,385.189,30,391.569,30z" id="XMLID_1615_" style="fill:#FFFFFF;"/><path d="M391.569,216.88c6.39,0,11.57,5.17,11.57,11.56c0,6.38-5.18,11.56-11.57,11.56    c-6.38,0-11.56-5.18-11.56-11.56C380.009,222.05,385.189,216.88,391.569,216.88z" id="XMLID_1614_" style="fill:#FFFFFF;"/><path d="M342.519,82.09c4.51,4.52,4.51,11.84,0,16.35c-4.52,4.52-11.84,4.52-16.35,0    c-4.52-4.51-4.52-11.83,0-16.35C330.679,77.58,337.999,77.58,342.519,82.09z" id="XMLID_1613_" style="fill:#FFFFFF;"/><path d="M342.519,196.56c4.51,4.51,4.51,11.83,0,16.35c-4.52,4.51-11.84,4.51-16.35,0    c-4.52-4.52-4.52-11.84,0-16.35C330.679,192.04,337.999,192.04,342.519,196.56z" id="XMLID_1612_" style="fill:#FFFFFF;"/><path d="M472.509,135.94c6.39,0,11.56,5.17,11.56,11.56s-5.17,11.56-11.56,11.56    c-6.39,0-11.56-5.17-11.56-11.56S466.119,135.94,472.509,135.94z" id="XMLID_1611_" style="fill:#FFFFFF;"/><path d="M299.419,132.08c8.71,0,15.77,7.06,15.77,15.77c0,8.71-7.06,15.77-15.77,15.77    c-8.7,0-15.76-7.06-15.76-15.77C283.659,139.14,290.719,132.08,299.419,132.08z" id="XMLID_1610_" style="fill:#FFFFFF;"/><path d="M449.399,270c13.81,0,25,11.19,25,25s-11.19,25-25,25c-13.81,0-25-11.19-25-25    S435.589,270,449.399,270z" id="XMLID_1609_" style="fill:#FFFFFF;"/><circle cx="89.399" cy="390" id="XMLID_1608_" r="35" style="fill:#FFFFFF;"/><path d="M393.349,338.3c4.36,24.95-3.16,51.681-22.57,71.09    c-27.9,27.9-74.73,20.65-124.97-6.1L51.909,209.4c-27.06-50.62-34.58-97.79-6.75-125.63c19.41-19.41,46.14-26.93,71.09-22.57    l64.43,64.43c4.37,24.96-3.16,51.68-22.57,71.09c-2.27,2.27-4.62,4.39-7.09,6.3l100.47,100.47c1.95-2.431,4.03-4.82,6.3-7.09    c19.41-19.41,46.15-26.92,71.12-22.54L393.349,338.3z" id="XMLID_1607_" style="fill:#9BC9FF;"/><circle cx="446.899" cy="377.5" id="XMLID_1606_" r="7.5" style="fill:#1E81CE;"/><circle cx="266.899" cy="82.5" id="XMLID_1605_" r="7.5" style="fill:#1E81CE;"/><circle cx="246.899" cy="232.5" id="XMLID_1604_" r="7.5" style="fill:#1E81CE;"/><circle cx="191.899" cy="437.5" id="XMLID_1603_" r="7.5" style="fill:#1E81CE;"/><circle cx="166.899" cy="42.5" id="XMLID_1602_" r="7.5" style="fill:#1E81CE;"/><circle cx="71.899" cy="292.5" id="XMLID_1601_" r="7.5" style="fill:#1E81CE;"/><path d="M324.287,432.136c-0.003,0-0.003,0-0.005,0    c-23.184-0.001-50.378-8.222-80.824-24.433c-0.436-0.232-0.836-0.527-1.185-0.877L48.373,212.936    c-0.348-0.348-0.642-0.745-0.874-1.179c-14.501-27.128-22.755-51.791-24.532-73.303c-2.003-24.245,4.274-43.833,18.655-58.219    C57.896,63.962,79.477,55,102.39,55c4.927,0,9.879,0.429,14.719,1.275c1.013,0.177,1.947,0.662,2.675,1.39l64.43,64.43    c0.727,0.727,1.212,1.661,1.389,2.673c4.808,27.458-4.149,55.678-23.959,75.488c-1.093,1.093-2.167,2.117-3.235,3.084    l92.773,92.774c1.025-1.145,2.045-2.223,3.071-3.249c16.259-16.259,37.829-25.214,60.735-25.214c4.948,0,9.921,0.433,14.783,1.285    c1.012,0.178,1.945,0.663,2.672,1.39l64.44,64.439c0.727,0.728,1.212,1.661,1.39,2.675c4.799,27.465-4.158,55.684-23.96,75.486    C361.568,425.672,344.735,432.136,324.287,432.136z M248.815,399.225c28.714,15.202,54.103,22.91,75.468,22.911    c0.001,0,0.003,0,0.004,0c17.7,0,32.152-5.478,42.956-16.281c17.132-17.132,25.081-41.384,21.433-65.156l-62.166-62.166    c-3.802-0.586-7.67-0.882-11.521-0.882c-20.235,0-39.294,7.914-53.664,22.285c-1.951,1.951-3.893,4.138-5.936,6.684    c-0.889,1.108-2.208,1.786-3.627,1.863c-1.419,0.073-2.803-0.452-3.809-1.457l-100.47-100.47    c-1.016-1.016-1.545-2.419-1.454-3.853c0.091-1.434,0.794-2.759,1.931-3.638c2.177-1.684,4.34-3.607,6.613-5.88    c17.139-17.139,25.088-41.392,21.433-65.156l-62.155-62.155c-3.782-0.58-7.629-0.873-11.46-0.873    c-20.243,0-39.313,7.921-53.696,22.306c-31.742,31.754-9.262,87.955,7.277,119.085L248.815,399.225z" id="XMLID_8730_" style="fill:#1E81CE;"/><path d="M147.229,165.03c-1.28,0-2.56-0.488-3.536-1.465l-64.3-64.309    c-1.953-1.953-1.953-5.119,0-7.071c1.953-1.952,5.119-1.952,7.071,0l64.3,64.31c1.953,1.953,1.953,5.119-0.001,7.071    C149.788,164.542,148.508,165.03,147.229,165.03z" id="XMLID_1598_" style="fill:#1E81CE;"/><path d="M363.599,381.39c-1.28,0-2.559-0.488-3.536-1.465l-68.73-68.729    c-1.953-1.952-1.953-5.118,0-7.07c1.953-1.953,5.118-1.953,7.071,0l68.73,68.729c1.953,1.952,1.953,5.118,0,7.07    C366.158,380.901,364.879,381.39,363.599,381.39z" id="XMLID_1597_" style="fill:#1E81CE;"/><path d="M388.689,494.38c-8.21,0-15.926-3.194-21.725-8.995l-13.484-13.483    l-19.935,19.934c-1.953,1.954-5.118,1.953-7.071,0c-1.953-1.952-1.953-5.118,0-7.07l23.47-23.47c1.953-1.953,5.118-1.953,7.071,0    l17.02,17.02c3.911,3.911,9.115,6.065,14.654,6.065c5.533,0,10.733-2.154,14.645-6.065c3.911-3.912,6.065-9.114,6.065-14.65    c0-5.536-2.154-10.738-6.065-14.649l-36.09-36.091c-1.953-1.952-1.953-5.118,0-7.07c1.954-1.953,5.119-1.952,7.071,0l36.09,36.091    c5.8,5.799,8.994,13.513,8.994,21.72c0,8.206-3.194,15.92-8.994,21.72C404.605,491.185,396.892,494.38,388.689,494.38z" id="XMLID_1596_" style="fill:#1E81CE;"/><path d="M391.569,202.6c-14.711,0-28.549-5.729-38.963-16.132    c-10.407-10.42-16.137-24.257-16.137-38.968s5.73-28.548,16.133-38.964C363.02,98.129,376.857,92.4,391.569,92.4    c30.388,0,55.11,24.718,55.11,55.1c0,14.716-5.733,28.554-16.144,38.966C420.117,196.871,406.28,202.6,391.569,202.6z     M391.569,102.4c-12.043,0-23.37,4.69-31.896,13.207c-8.513,8.523-13.204,19.851-13.204,31.893s4.691,23.37,13.208,31.896    c8.522,8.513,19.85,13.204,31.892,13.204c12.042,0,23.37-4.69,31.896-13.208c8.52-8.52,13.213-19.847,13.213-31.893    C436.679,122.632,416.442,102.4,391.569,102.4z" id="XMLID_8713_" style="fill:#1E81CE;"/><path d="M391.569,58.12c-9.131,0-16.56-7.429-16.56-16.56    c0-9.131,7.429-16.56,16.56-16.56c9.137,0,16.57,7.429,16.57,16.56C408.139,50.691,400.705,58.12,391.569,58.12z M391.569,35    c-3.617,0-6.56,2.943-6.56,6.56c0,3.617,2.943,6.56,6.56,6.56c3.623,0,6.57-2.943,6.57-6.56C398.139,37.943,395.192,35,391.569,35    z" id="XMLID_8705_" style="fill:#1E81CE;"/><path d="M391.569,245c-9.131,0-16.56-7.429-16.56-16.56c0-9.131,7.429-16.56,16.56-16.56    c9.137,0,16.57,7.429,16.57,16.56C408.139,237.571,400.705,245,391.569,245z M391.569,221.88c-3.617,0-6.56,2.943-6.56,6.56    c0,3.617,2.943,6.56,6.56,6.56c3.623,0,6.57-2.943,6.57-6.56C398.139,224.823,395.192,221.88,391.569,221.88z" id="XMLID_8697_" style="fill:#1E81CE;"/><path d="M391.569,221.88c-2.761,0-5-2.239-5-5V197.6c0-2.761,2.239-5,5-5    c2.761,0,5,2.239,5,5v19.28C396.569,219.641,394.33,221.88,391.569,221.88z" id="XMLID_1589_" style="fill:#1E81CE;"/><path d="M391.569,102.4c-2.761,0-5-2.239-5-5V53.12c0-2.761,2.239-5,5-5    c2.761,0,5,2.239,5,5V97.4C396.569,100.161,394.33,102.4,391.569,102.4z" id="XMLID_1588_" style="fill:#1E81CE;"/><path d="M466.147,105.638c-6.211,0-12.051-2.419-16.444-6.812    c-4.393-4.393-6.812-10.231-6.812-16.441c0-6.209,2.419-12.048,6.812-16.441c4.393-4.392,10.233-6.812,16.444-6.812    c6.213,0,12.051,2.42,16.44,6.814c4.39,4.39,6.81,10.229,6.81,16.438c0,6.209-2.42,12.048-6.812,16.441    C478.199,103.217,472.36,105.638,466.147,105.638z M466.147,69.132c-3.54,0-6.869,1.379-9.373,3.883    c-2.504,2.504-3.883,5.832-3.883,9.369c0,3.538,1.379,6.866,3.883,9.37c2.504,2.504,5.833,3.883,9.373,3.883    c3.539,0,6.864-1.378,9.363-3.881c2.506-2.506,3.886-5.834,3.886-9.372c0-3.538-1.379-6.865-3.883-9.369    C473.012,70.511,469.686,69.132,466.147,69.132z" id="XMLID_8683_" style="fill:#1E81CE;"/><path d="M334.34,221.292c-4.424,0-8.582-1.721-11.707-4.847    c-3.133-3.133-4.857-7.297-4.854-11.724c0.002-4.422,1.728-8.578,4.858-11.701c3.118-3.125,7.277-4.851,11.703-4.851    c4.423,0,8.584,1.724,11.714,4.854c6.45,6.45,6.452,16.955,0.004,23.417C342.92,219.573,338.762,221.292,334.34,221.292z     M334.34,198.17c-1.75,0-3.396,0.683-4.632,1.922c-1.246,1.243-1.929,2.887-1.93,4.636c-0.001,1.754,0.683,3.404,1.926,4.647    c1.237,1.237,2.883,1.918,4.636,1.918c1.754,0,3.405-0.683,4.647-1.922c2.55-2.555,2.552-6.72-0.004-9.275    C337.742,198.854,336.093,198.17,334.34,198.17z" id="XMLID_8675_" style="fill:#1E81CE;"/><path d="M342.519,201.56c-1.279,0-2.558-0.488-3.534-1.463    c-1.954-1.952-1.955-5.118-0.002-7.071l13.62-13.63c1.952-1.953,5.119-1.954,7.071-0.002c1.954,1.952,1.955,5.118,0.003,7.071    l-13.62,13.63C345.079,201.071,343.799,201.56,342.519,201.56z" id="XMLID_1583_" style="fill:#1E81CE;"/><path d="M431.729,121.8c-1.28,0-2.559-0.488-3.536-1.464    c-1.953-1.953-1.953-5.119,0-7.071l21.51-21.51c1.953-1.952,5.118-1.952,7.071,0c1.953,1.953,1.953,5.119,0,7.071l-21.51,21.51    C434.288,121.312,433.009,121.8,431.729,121.8z" id="XMLID_1582_" style="fill:#1E81CE;"/><path d="M472.509,164.06c-9.131,0-16.56-7.429-16.56-16.56s7.429-16.56,16.56-16.56    c9.131,0,16.56,7.429,16.56,16.56S481.64,164.06,472.509,164.06z M472.509,140.94c-3.617,0-6.56,2.943-6.56,6.56    s2.943,6.56,6.56,6.56c3.617,0,6.56-2.943,6.56-6.56S476.126,140.94,472.509,140.94z" id="XMLID_8661_" style="fill:#1E81CE;"/><path d="M299.419,168.62c-11.447,0-20.76-9.317-20.76-20.77    c0-11.453,9.313-20.77,20.76-20.77c11.453,0,20.77,9.317,20.77,20.77C320.189,159.303,310.871,168.62,299.419,168.62z     M299.419,137.08c-5.933,0-10.76,4.832-10.76,10.77c0,5.939,4.827,10.77,10.76,10.77c5.938,0,10.77-4.831,10.77-10.77    C310.189,141.912,305.357,137.08,299.419,137.08z" id="XMLID_8653_" style="fill:#1E81CE;"/><path d="M341.469,152.85h-26.28c-2.761,0-5-2.239-5-5s2.239-5,5-5h26.28    c2.761,0,5,2.239,5,5S344.23,152.85,341.469,152.85z" id="XMLID_1577_" style="fill:#1E81CE;"/><path d="M460.949,152.5h-19.27c-2.761,0-5-2.239-5-5s2.239-5,5-5h19.27    c2.761,0,5,2.239,5,5S463.71,152.5,460.949,152.5z" id="XMLID_1576_" style="fill:#1E81CE;"/><path d="M334.34,106.83c-4.426,0-8.585-1.726-11.711-4.858    c-3.123-3.116-4.848-7.271-4.851-11.693c-0.003-4.427,1.722-8.591,4.854-11.724c3.125-3.125,7.283-4.847,11.707-4.847    c4.421,0,8.58,1.72,11.711,4.843c6.456,6.47,6.454,16.975,0.004,23.425C342.924,105.106,338.763,106.83,334.34,106.83z     M334.34,83.707c-1.753,0-3.399,0.681-4.636,1.918c-1.243,1.243-1.927,2.893-1.926,4.647c0.001,1.749,0.684,3.393,1.922,4.628    c1.244,1.247,2.889,1.93,4.64,1.93c1.752,0,3.401-0.684,4.643-1.926c2.556-2.555,2.554-6.72-0.004-9.283    C337.745,84.39,336.095,83.707,334.34,83.707z" id="XMLID_8639_" style="fill:#1E81CE;"/><path d="M448.8,221.292c-4.423,0-8.581-1.721-11.707-4.847    c-3.133-3.133-4.857-7.297-4.855-11.724c0.003-4.422,1.728-8.578,4.858-11.701c3.119-3.125,7.277-4.851,11.703-4.851    c4.423,0,8.584,1.724,11.714,4.854c3.126,3.12,4.852,7.275,4.854,11.697c0.003,4.427-1.722,8.591-4.854,11.724    C457.38,219.573,453.222,221.292,448.8,221.292z M448.8,198.17c-1.75,0-3.395,0.683-4.632,1.922    c-1.246,1.243-1.929,2.887-1.93,4.636c-0.001,1.754,0.683,3.404,1.926,4.647c1.237,1.237,2.883,1.918,4.636,1.918    c1.754,0,3.405-0.683,4.647-1.922c1.239-1.239,1.923-2.889,1.922-4.643c-0.001-1.749-0.684-3.392-1.922-4.628    C452.201,198.854,450.553,198.17,448.8,198.17z" id="XMLID_8631_" style="fill:#1E81CE;"/><path d="M440.629,201.56c-1.28,0-2.559-0.488-3.536-1.464l-13.63-13.63    c-1.953-1.953-1.953-5.119,0-7.071c1.953-1.952,5.118-1.952,7.071,0l13.63,13.63c1.953,1.953,1.953,5.119,0,7.071    C443.188,201.072,441.909,201.56,440.629,201.56z" id="XMLID_1571_" style="fill:#1E81CE;"/><path d="M356.139,117.07c-1.28,0-2.56-0.489-3.537-1.466l-13.62-13.63    c-1.952-1.953-1.951-5.119,0.002-7.071c1.953-1.953,5.119-1.951,7.071,0.003l13.62,13.63c1.952,1.953,1.951,5.119-0.003,7.071    C358.697,116.582,357.418,117.07,356.139,117.07z" id="XMLID_1570_" style="fill:#1E81CE;"/><path d="M403.139,148.65c-9.137,0-16.57-7.433-16.57-16.57    c0-9.131,7.434-16.56,16.57-16.56c9.131,0,16.56,7.429,16.56,16.56C419.699,141.217,412.27,148.65,403.139,148.65z     M403.139,125.52c-3.623,0-6.57,2.943-6.57,6.56c0,3.623,2.947,6.57,6.57,6.57c3.617,0,6.56-2.947,6.56-6.57    C409.699,128.463,406.756,125.52,403.139,125.52z" id="XMLID_8617_" style="fill:#1E81CE;"/><path d="M380.009,179.48c-7.008,0-12.71-5.702-12.71-12.71s5.702-12.71,12.71-12.71    s12.71,5.702,12.71,12.71S387.017,179.48,380.009,179.48z M380.009,164.06c-1.494,0-2.71,1.216-2.71,2.71    c0,1.494,1.216,2.71,2.71,2.71c1.494,0,2.71-1.216,2.71-2.71C382.719,165.276,381.503,164.06,380.009,164.06z" id="XMLID_8609_" style="fill:#1E81CE;"/><path d="M89.399,430c-22.056,0-40-17.944-40-40s17.944-40,40-40s40,17.944,40,40    S111.455,430,89.399,430z M89.399,360c-16.542,0-30,13.458-30,30s13.458,30,30,30s30-13.458,30-30S105.941,360,89.399,360z" id="XMLID_8601_" style="fill:#1E81CE;"/><path d="M449.399,325c-16.542,0-30-13.458-30-30s13.458-30,30-30    c16.542,0,30,13.458,30,30S465.941,325,449.399,325z M449.399,275c-11.028,0-20,8.972-20,20s8.972,20,20,20s20-8.972,20-20    S460.427,275,449.399,275z" id="XMLID_8590_" style="fill:#1E81CE;"/></g></g><g id="Layer_1"/></svg>